<svg aria-hidden="true" style="position: absolute; width: 0; height: 0; overflow: hidden;" version="1.1" xmlns="http://www.w3.org/2000/svg" xmlns:xlink="http://www.w3.org/1999/xlink">
<defs>
<symbol id="icon-45" viewBox="0 0 46 32">
<path fill="#0c111f" style="fill: var(--color1, #0c111f)" opacity="0.34" d="M14.027 2.777h21.918c5.326 0 9.644 4.318 9.644 9.644s-4.318 9.644-9.644 9.644h-21.918c-5.326 0-9.644-4.318-9.644-9.644s4.318-9.644 9.644-9.644z"></path>
<path fill="#000" style="fill: var(--color2, #000)" d="M14.027 5.407c3.874 0 7.014 3.14 7.014 7.014s-3.14 7.014-7.014 7.014c-3.874 0-7.014-3.14-7.014-7.014s3.14-7.014 7.014-7.014z"></path>
<path fill="#fff" style="fill: var(--color3, #fff)" d="M15.757 13.099c-0.076 0.073-0.11 0.179-0.093 0.283l0.26 1.438c0.022 0.122-0.030 0.245-0.132 0.316-0.1 0.073-0.233 0.082-0.342 0.023l-1.294-0.675c-0.045-0.024-0.095-0.037-0.146-0.038h-0.079c-0.027 0.004-0.054 0.013-0.079 0.026l-1.295 0.678c-0.064 0.032-0.136 0.044-0.207 0.032-0.173-0.033-0.288-0.198-0.26-0.371l0.26-1.438c0.017-0.105-0.018-0.212-0.093-0.286l-1.055-1.023c-0.088-0.086-0.119-0.214-0.079-0.33 0.039-0.116 0.139-0.2 0.26-0.219l1.452-0.211c0.11-0.011 0.208-0.079 0.257-0.178l0.64-1.312c0.015-0.029 0.035-0.056 0.058-0.079l0.026-0.020c0.014-0.015 0.030-0.028 0.047-0.038l0.032-0.012 0.050-0.020h0.123c0.11 0.011 0.207 0.077 0.257 0.175l0.648 1.306c0.047 0.096 0.138 0.162 0.243 0.178l1.452 0.211c0.123 0.018 0.225 0.102 0.266 0.219 0.038 0.117 0.005 0.246-0.085 0.33l-1.093 1.035z"></path>
<path fill="#fff" style="fill: var(--color3, #fff)" d="M29.624 15.568c-0.351 0-0.667-0.067-0.947-0.202-0.278-0.136-0.501-0.323-0.667-0.56s-0.255-0.508-0.266-0.813h0.841c0.021 0.247 0.13 0.449 0.328 0.608s0.435 0.238 0.712 0.238c0.22 0 0.416-0.050 0.586-0.151 0.172-0.103 0.306-0.244 0.403-0.423 0.099-0.179 0.148-0.384 0.148-0.614 0-0.233-0.050-0.442-0.151-0.625s-0.24-0.327-0.418-0.432c-0.176-0.105-0.377-0.158-0.605-0.16-0.174 0-0.348 0.030-0.524 0.090s-0.318 0.138-0.426 0.235l-0.793-0.118 0.322-2.892h3.155v0.743h-2.435l-0.182 1.606h0.034c0.112-0.108 0.261-0.199 0.445-0.272 0.187-0.073 0.387-0.109 0.6-0.109 0.349 0 0.66 0.083 0.933 0.249 0.275 0.166 0.49 0.393 0.647 0.681 0.159 0.286 0.237 0.615 0.235 0.986 0.002 0.372-0.082 0.703-0.252 0.995-0.168 0.291-0.402 0.521-0.701 0.689-0.297 0.166-0.638 0.249-1.023 0.249zM33.136 15.543c-0.153 0-0.285-0.054-0.395-0.163-0.11-0.11-0.165-0.243-0.165-0.398 0-0.153 0.055-0.284 0.165-0.392 0.11-0.11 0.242-0.165 0.395-0.165s0.285 0.055 0.395 0.165c0.11 0.108 0.165 0.239 0.165 0.392 0 0.103-0.026 0.197-0.078 0.283-0.050 0.084-0.118 0.151-0.202 0.202s-0.177 0.076-0.28 0.076zM36.755 15.585c-0.443-0.002-0.821-0.119-1.135-0.35s-0.554-0.569-0.72-1.011c-0.166-0.443-0.249-0.976-0.249-1.6 0-0.622 0.083-1.153 0.249-1.594 0.168-0.441 0.409-0.777 0.723-1.009 0.316-0.232 0.693-0.347 1.132-0.347s0.815 0.117 1.129 0.35c0.314 0.232 0.554 0.568 0.72 1.009 0.168 0.439 0.252 0.969 0.252 1.591 0 0.626-0.083 1.16-0.249 1.603-0.166 0.441-0.406 0.778-0.72 1.011-0.314 0.232-0.691 0.347-1.132 0.347zM36.755 14.837c0.389 0 0.692-0.19 0.911-0.569 0.22-0.379 0.331-0.927 0.331-1.645 0-0.476-0.050-0.879-0.151-1.208-0.099-0.331-0.242-0.581-0.429-0.751-0.185-0.172-0.405-0.258-0.661-0.258-0.387 0-0.69 0.191-0.911 0.572s-0.332 0.929-0.333 1.645c0 0.478 0.050 0.883 0.148 1.213 0.101 0.329 0.244 0.578 0.429 0.748 0.185 0.168 0.407 0.252 0.667 0.252z"></path>
</symbol>
<symbol id="icon-50" viewBox="0 0 47 32">
<path  opacity="0.34" d="M14.222 2.667h22.667c5.4 0 9.778 4.378 9.778 9.778s-4.378 9.778-9.778 9.778h-22.667c-5.4 0-9.778-4.378-9.778-9.778s4.378-9.778 9.778-9.778z"></path>
<path d="M14.222 5.333c3.927 0 7.111 3.184 7.111 7.111s-3.184 7.111-7.111 7.111c-3.927 0-7.111-3.184-7.111-7.111s3.184-7.111 7.111-7.111z"></path>
<path  d="M15.975 13.132c-0.077 0.074-0.112 0.182-0.095 0.287l0.263 1.458c0.022 0.124-0.030 0.249-0.133 0.32-0.101 0.074-0.236 0.083-0.347 0.024l-1.312-0.684c-0.046-0.024-0.096-0.037-0.148-0.039h-0.080c-0.028 0.004-0.055 0.013-0.080 0.027l-1.313 0.688c-0.065 0.033-0.138 0.044-0.21 0.033-0.175-0.033-0.292-0.2-0.264-0.377l0.264-1.458c0.017-0.106-0.018-0.214-0.095-0.29l-1.070-1.037c-0.089-0.087-0.121-0.217-0.080-0.335 0.040-0.117 0.141-0.203 0.263-0.222l1.473-0.214c0.112-0.012 0.21-0.080 0.261-0.18l0.649-1.33c0.015-0.030 0.035-0.057 0.059-0.080l0.027-0.021c0.014-0.015 0.030-0.028 0.048-0.039l0.032-0.012 0.050-0.021h0.125c0.111 0.012 0.21 0.078 0.261 0.178l0.657 1.324c0.047 0.097 0.14 0.164 0.246 0.18l1.473 0.214c0.124 0.018 0.228 0.104 0.27 0.222 0.039 0.119 0.005 0.249-0.086 0.335l-1.108 1.049z"></path>
<path  d="M27.993 14.419h2.759v1.136h0.838v-1.136h0.77v-0.744h-0.77v-3.938h-1.082l-2.514 3.972v0.71zM30.757 13.675h-1.844v-0.045l1.798-2.847h0.045v2.892zM33.862 15.61c0.31 0 0.568-0.253 0.568-0.568 0-0.31-0.259-0.565-0.568-0.565-0.313 0-0.568 0.256-0.568 0.565 0 0.315 0.256 0.568 0.568 0.568zM37.543 15.635c1.17 0 2.006-0.827 2.003-1.96 0.003-1.125-0.781-1.943-1.841-1.943-0.432 0-0.832 0.165-1.060 0.386h-0.034l0.185-1.628h2.469v-0.753h-3.199l-0.327 2.932 0.804 0.119c0.219-0.196 0.611-0.329 0.963-0.329 0.69 0.006 1.19 0.523 1.19 1.233 0 0.699-0.486 1.205-1.153 1.205-0.563 0-1.008-0.358-1.054-0.858h-0.852c0.034 0.926 0.838 1.597 1.906 1.597z"></path>
</symbol>
</defs>
</svg>
