<svg xmlns="http://www.w3.org/2000/svg" aria-hidden="true" style="position:absolute;width:0;height:0;overflow:hidden"><defs>
<symbol id="icon-Friends" viewBox="0 0 43 32" ><path d="M21.379 20.949c6.686 0 12.396 1.06 12.396 5.302 0 4.24-5.673 5.339-12.396 5.339-6.686 0-12.396-1.06-12.396-5.3 0-4.242 5.673-5.341 12.396-5.341zm10.69-2.554c2.556-.047 5.304.304 6.32.553 2.151.423 3.567 1.286 4.153 2.541a3.744 3.744 0 0 1 0 3.254c-.897 1.946-3.788 2.571-4.912 2.733-.232.035-.419-.167-.394-.4.574-5.393-3.992-7.95-5.174-8.538-.051-.026-.061-.067-.056-.091.004-.018.025-.046.063-.051zm-21.663-.004.481.004c.038.005.058.033.061.049.005.026-.005.065-.054.093-1.183.588-5.749 3.145-5.175 8.537.024.235-.161.435-.393.402-1.124-.161-4.015-.786-4.912-2.733a3.737 3.737 0 0 1 0-3.254c.586-1.255 2-2.118 4.151-2.543 1.017-.247 3.764-.599 6.322-.551l-.481-.004zM21.379.41c4.553 0 8.203 3.668 8.203 8.249 0 4.579-3.65 8.25-8.203 8.25s-8.203-3.671-8.203-8.25c0-4.581 3.65-8.249 8.203-8.249zm11.135 1.376c4.397 0 7.85 4.161 6.674 8.796-.794 3.12-3.668 5.193-6.87 5.109a6.741 6.741 0 0 1-.942-.091.31.31 0 0 1-.208-.476 11.238 11.238 0 0 0 1.918-6.316c0-2.436-.761-4.707-2.082-6.569-.042-.058-.073-.147-.032-.214.035-.054.1-.083.161-.097a6.848 6.848 0 0 1 1.38-.142zm-22.074 0c.478 0 .935.051 1.382.142.059.014.126.044.161.097.04.067.01.156-.031.214A11.314 11.314 0 0 0 9.87 8.808c0 2.334.696 4.509 1.918 6.316a.309.309 0 0 1-.208.476 6.48 6.48 0 0 1-.942.091c-3.202.084-6.076-1.988-6.87-5.109C2.59 5.947 6.043 1.786 10.44 1.786z"/></symbol>
<symbol id="icon-Heart" viewBox="0 0 33 32"><path d="M10.435.797c1.03.031 2.027.211 2.993.54h.096a.583.583 0 0 1 .147.096c.361.116.703.247 1.03.427l.621.278c.245.131.539.374.703.474.163.096.343.196.49.309A10.237 10.237 0 0 1 22.807.798c1.031 0 2.061.146 3.04.474 6.033 1.961 8.206 8.581 6.391 14.366a20.804 20.804 0 0 1-4.918 7.86 62.86 62.86 0 0 1-10.347 8.107l-.409.247-.425-.263a62.285 62.285 0 0 1-10.41-8.107 21.143 21.143 0 0 1-4.921-7.843c-1.847-5.786.327-12.405 6.425-14.401A7.444 7.444 0 0 1 8.686.896h.196a9.473 9.473 0 0 1 1.373-.098h.18zm14.563 5.165c-.67-.23-1.406.131-1.651.817a1.338 1.338 0 0 0 .817 1.682c1.048.392 1.749 1.424 1.749 2.566v.051c-.031.374.082.735.311 1.013s.572.44.932.474a1.344 1.344 0 0 0 1.291-1.244v-.194c.049-2.29-1.339-4.364-3.449-5.165z"/></symbol>
<symbol id="icon-Vector-3" viewBox="0 0 25 32"><path fill="#fff" d="M8.708 23.579a1.683 1.683 0 0 0 1.314-.624l8.135-10.105a1.68 1.68 0 0 0 0-2.138L9.736.607a1.686 1.686 0 0 0-2.594 2.156l7.528 9.027-7.276 9.027a1.68 1.68 0 0 0-.227 1.802 1.686 1.686 0 0 0 1.541.961z" style="fill:var(--color1, #fff)"/></symbol>
<symbol id="icon-Wallet" viewBox="0 0 35 32"><path d="M25.174.672c5.825 0 9.263 3.352 9.263 9.089h-7.146v.059c-3.316 0-6.005 2.621-6.005 5.855s2.689 5.855 6.005 5.855h7.146v.527c0 5.664-3.438 9.016-9.263 9.016H9.922c-5.825 0-9.263-3.352-9.263-9.016V9.689C.659 4.025 4.097.673 9.922.673h15.252zm8.002 11.607c.696 0 1.261.55 1.261 1.229v4.274c-.008.676-.568 1.222-1.261 1.229h-5.75c-1.679.022-3.147-1.099-3.528-2.693-.191-.99.077-2.011.731-2.79s1.629-1.236 2.661-1.249h5.885zm-5.074 1.976h-.556c-.341-.004-.669.125-.912.359s-.379.552-.379.885c0 .698.576 1.265 1.291 1.273h.556c.713 0 1.291-.564 1.291-1.259s-.578-1.259-1.291-1.259zm-9.908-7.011H8.661c-.707 0-1.283.555-1.291 1.244 0 .698.576 1.265 1.291 1.273h9.533c.713 0 1.291-.564 1.291-1.259s-.578-1.259-1.291-1.259z"/></symbol>
<symbol id="icon-Vector-6" viewBox="0 0 31 32"><path fill="#fff" d="M31.475 15.981a15.737 15.737 0 1 1-31.475 0 15.737 15.737 0 0 1 31.475 0zm-18.118-5.719a.981.981 0 0 0-1.41.289.982.982 0 0 0-.144.512v9.836a.985.985 0 0 0 1.554.801l6.885-4.918a.982.982 0 0 0 0-1.6l-6.885-4.918z" style="fill:var(--color1, #fff)"/></symbol>
<symbol id="icon-Vector-7" viewBox="0 0 16 32"><path fill="#fff" d="M2.675 32.001a2.277 2.277 0 0 0 1.782-.846l11.04-13.714a2.287 2.287 0 0 0 0-2.902L4.068.825a2.29 2.29 0 0 0-3.52 2.926l10.217 12.251L.891 28.253a2.287 2.287 0 0 0-.308 2.444 2.289 2.289 0 0 0 2.091 1.304z" style="fill:var(--color1, #fff)"/></symbol>
<symbol id="icon-T-1" viewBox="0 0 30 32" ><path d="M2.253 8.623V2.078h26.006v6.545h-9V32h-8.007V8.623h-9z"/></symbol>
<symbol id="icon-Frame-348" viewBox="0 0 32 32"><path fill="#0c111f" d="M16 0c8.837 0 16 7.163 16 16s-7.163 16-16 16S0 24.837 0 16 7.163 0 16 0z" opacity=".08" style="fill:var(--color2, #0c111f)"/><path fill="#0c111f" d="M12.151 13.935v-1.833h7.282v1.833h-2.52v6.545h-2.242v-6.545h-2.52z" style="fill:var(--color2, #0c111f)"/></symbol>
<symbol id="icon-Path-1" viewBox="0 0 40 32"><path d="M39.111 3.762a16.708 16.708 0 0 1-4.62 1.266A7.97 7.97 0 0 0 38.018.596a16.023 16.023 0 0 1-5.084 1.941A8.035 8.035 0 0 0 27.077 0c-4.439 0-8.013 3.603-8.013 8.02 0 .636.054 1.247.186 1.828-6.666-.325-12.564-3.52-16.527-8.387a8.07 8.07 0 0 0-1.098 4.053 8.03 8.03 0 0 0 3.562 6.664 7.906 7.906 0 0 1-3.623-.988v.088c0 3.896 2.779 7.133 6.424 7.878a8.023 8.023 0 0 1-2.102.264c-.513 0-1.032-.029-1.518-.137 1.039 3.175 3.987 5.51 7.492 5.586a16.112 16.112 0 0 1-9.942 3.42c-.658 0-1.288-.029-1.919-.11 3.552 2.29 7.761 3.598 12.3 3.598 14.755 0 22.821-12.222 22.821-22.816 0-.354-.012-.697-.029-1.036 1.591-1.129 2.928-2.54 4.019-4.163z"/></symbol>
<symbol id="icon-instagram" viewBox="0 0 32 32"><path d="M10 0h12c5.522 0 10 4.478 10 10v12c0 5.522-4.478 10-10 10H10C4.478 32 0 27.522 0 22V10C0 4.478 4.478 0 10 0zm12 29c3.86 0 7-3.14 7-7V10c0-3.86-3.14-7-7-7H10c-3.86 0-7 3.14-7 7v12c0 3.86 3.14 7 7 7h12z"/><path d="M8 16a8 8 0 1 1 16 0 8 8 0 0 1-16 0zm3 0c0 2.756 2.244 5 5 5s5-2.244 5-5c0-2.758-2.244-5-5-5s-5 2.242-5 5zM25.666 7.4a1.066 1.066 0 1 1-2.131 0 1.066 1.066 0 0 1 2.131 0z"/></symbol>
<symbol id="icon-facebook" viewBox="0 0 16 32"><path d="M13.04 5.272h2.899V.223c-.5-.069-2.22-.224-4.223-.224-4.179 0-7.042 2.629-7.042 7.46v4.447H.062v5.644h4.612v14.201h5.654v-14.2h4.425l.703-5.644h-5.129V8.019c.001-1.631.441-2.748 2.713-2.748z"/></symbol></defs></svg>